<svg xmlns="http://www.w3.org/2000/svg" viewBox="0 0 170.57 123.63"><path d="M66.63,11h.23a9.24,9.24,0,0,0-17.48,0h-.77a5.19,5.19,0,0,0-5.19,5.18h0v1.26h28.4V16.22A5.19,5.19,0,0,0,66.63,11Z" style="fill:#fff;stroke:#919191;stroke-linecap:round;stroke-linejoin:round;stroke-width:2.4230000972747803px"/><path d="M66,11.55h.16a6.6,6.6,0,0,0-12.48,0h-.55a3.71,3.71,0,0,0-3.71,3.7v.9H69.66v-.9A3.7,3.7,0,0,0,66,11.55Z" style="fill:#e0e0e0"/><path d="M24.41,109.72h.23a9.23,9.23,0,0,0-17.47,0H6.4a5.19,5.19,0,0,0-5.19,5.19v1.26H29.6V114.9A5.18,5.18,0,0,0,24.41,109.72Z" style="fill:#fff;stroke:#919191;stroke-linecap:round;stroke-linejoin:round;stroke-width:2.4230000972747803px"/><path d="M23.74,110.23h.17a6.6,6.6,0,0,0-12.48,0h-.55a3.71,3.71,0,0,0-3.71,3.7v.9H27.45v-.9A3.71,3.71,0,0,0,23.74,110.23Z" style="fill:#e0e0e0"/><path d="M141.58,49.35h.23a9.25,9.25,0,0,0-17.48,0h-.77a5.18,5.18,0,0,0-5.18,5.19V55.8h28.39V54.54A5.19,5.19,0,0,0,141.58,49.35Z" style="fill:#fff;stroke:#919191;stroke-linecap:round;stroke-linejoin:round;stroke-width:2.4230000972747803px"/><path d="M140.91,49.86h.16a6.6,6.6,0,0,0-12.48,0H128a3.71,3.71,0,0,0-3.71,3.71v.9h20.29v-.9a3.71,3.71,0,0,0-3.71-3.71Z" style="fill:#e0e0e0"/><path d="M42.74,56.21H88.8a4.87,4.87,0,0,1,4.86,4.86h0v43.62H37.87V61.07a4.87,4.87,0,0,1,4.87-4.86Z" style="fill:none;stroke:#919191;stroke-linecap:round;stroke-linejoin:round;stroke-width:2.4230000972747803px;stroke-dasharray:7.574999809265137"/><path d="M60.69,41.69h46.06a4.87,4.87,0,0,1,4.87,4.87h0V90.17H55.83V46.56a4.87,4.87,0,0,1,4.86-4.87Z" style="fill:#e0e0e0"/><path d="M49.61,49.33H95.67a4.87,4.87,0,0,1,4.87,4.87h0V97.81H44.75V54.2a4.87,4.87,0,0,1,4.86-4.87Z" style="fill:#fff;stroke:#919191;stroke-linecap:round;stroke-linejoin:round;stroke-width:2.4230000972747803px"/><path d="M49.61,49.33H95.67a4.87,4.87,0,0,1,4.87,4.87h0v4.54H44.75V54.2a4.87,4.87,0,0,1,4.86-4.87Z" style="fill:#e0e0e0;stroke:#919191"/><line x1="64.38" y1="83.49" x2="66.84" y2="90.23" style="fill:none;stroke:#919191;stroke-linecap:round;stroke-linejoin:round"/><line x1="66.99" y1="83.01" x2="69.29" y2="89.33" style="fill:none;stroke:#919191;stroke-linecap:round;stroke-linejoin:round"/><line x1="69.47" y1="83.82" x2="63.15" y2="86.12" style="fill:none;stroke:#919191;stroke-linecap:round;stroke-linejoin:round"/><line x1="70.37" y1="86.27" x2="64.47" y2="88.43" style="fill:none;stroke:#919191;stroke-linecap:round;stroke-linejoin:round"/><polyline points="74.49 73.86 76.87 76.19 79.56 78.81" style="fill:none;stroke:#919191;stroke-linecap:round;stroke-miterlimit:10"/><line x1="74.55" y1="78.87" x2="79.5" y2="73.8" style="fill:none;stroke:#919191;stroke-linecap:round;stroke-miterlimit:10"/><line x1="86.99" y1="73.72" x2="92.06" y2="78.67" style="fill:none;stroke:#919191;stroke-linecap:round;stroke-miterlimit:10"/><line x1="87.05" y1="78.72" x2="92" y2="73.66" style="fill:none;stroke:#919191;stroke-linecap:round;stroke-miterlimit:10"/><path d="M74.23,95a9.27,9.27,0,0,1,9.15-9.37h0a9.26,9.26,0,0,1,9.37,9.16h0Z" style="fill:#f1f6f8"/><path d="M74.23,95a9.27,9.27,0,0,1,9.15-9.37h0a9.26,9.26,0,0,1,9.37,9.16h0Z" style="fill:none;stroke:#919191;stroke-linecap:round;stroke-linejoin:round;stroke-width:1.5px"/><path d="M87.74,101.53h0a2.77,2.77,0,0,1-2.81-2.75l-.07-5.32,5.56-.07.07,5.33a2.79,2.79,0,0,1-2.75,2.81Z" style="fill:#feaaa8"/><path d="M87.74,101.53h0a2.77,2.77,0,0,1-2.81-2.75l-.07-5.32,5.56-.07.07,5.33a2.79,2.79,0,0,1-2.75,2.81Z" style="fill:none;stroke:#919191;stroke-linecap:round;stroke-linejoin:round;stroke-width:1.5px"/><path d="M51.28,54.42a1.22,1.22,0,1,1-1.22-1.21h0a1.21,1.21,0,0,1,1.22,1.21Z" style="fill:#ffca04"/><path d="M57.25,54.42A1.22,1.22,0,1,1,56,53.21h0a1.21,1.21,0,0,1,1.21,1.21Z" style="fill:#feaaa8"/><path d="M63.23,54.42A1.22,1.22,0,1,1,62,53.21h0a1.21,1.21,0,0,1,1.21,1.21Z" style="fill:#b1daff"/><path d="M51.28,54.42a1.22,1.22,0,1,1-1.22-1.21h0a1.21,1.21,0,0,1,1.22,1.21Z" style="fill:none"/><path d="M50.06,55.64a1.22,1.22,0,1,0-1.22-1.22,1.22,1.22,0,0,0,1.22,1.22m0,1.26a2.48,2.48,0,1,1,2.48-2.48A2.49,2.49,0,0,1,50.06,56.9Z" style="fill:#919191"/><path d="M57.25,54.42A1.22,1.22,0,1,1,56,53.21h0a1.21,1.21,0,0,1,1.21,1.21Z" style="fill:none"/><path d="M56,55.64a1.22,1.22,0,1,0-1.22-1.22A1.22,1.22,0,0,0,56,55.64m0,1.26a2.48,2.48,0,1,1,2.48-2.48A2.48,2.48,0,0,1,56,56.9Z" style="fill:#919191"/><path d="M63.23,54.42A1.22,1.22,0,1,1,62,53.21h0a1.21,1.21,0,0,1,1.21,1.21Z" style="fill:none"/><path d="M62,55.64a1.22,1.22,0,1,0-1.22-1.22A1.22,1.22,0,0,0,62,55.64m0,1.26a2.48,2.48,0,1,1,2.48-2.48A2.48,2.48,0,0,1,62,56.9Z" style="fill:#919191"/><path d="M27.53,34.66a5.52,5.52,0,0,1-.21-2.21,5.22,5.22,0,0,1,.7-2.1,6.26,6.26,0,0,1,1.63-1.81,7.43,7.43,0,0,1,2.54-1.36,5.5,5.5,0,0,1,2.17-.2,4.16,4.16,0,0,1,1.71.59,4.11,4.11,0,0,1,1.15,1,5,5,0,0,1,.92,1.69,4.8,4.8,0,0,1,.19,1.46,5.37,5.37,0,0,1-.23,1.32c-.14.41-.26.82-.36,1.21a4.88,4.88,0,0,0-.16,1.2,2.45,2.45,0,0,0,.36,1.24l.56.73-2.58,2-.66-.86a4.68,4.68,0,0,1-.86-3,5.74,5.74,0,0,1,.2-1.23c.11-.38.2-.76.27-1.11a3.29,3.29,0,0,0,0-1,1.91,1.91,0,0,0-.48-1,2.15,2.15,0,0,0-1.42-1,2,2,0,0,0-1.52.5,2.32,2.32,0,0,0-.73.88,2.27,2.27,0,0,0-.2,1,2.94,2.94,0,0,0,.25,1,4.61,4.61,0,0,0,.62,1l-2.8,2.15A6.64,6.64,0,0,1,27.53,34.66Zm12,3.8,2.25,2.94-3,2.3-2.25-2.94Z" style="fill:#919191"/><path d="M29.69,51.56a3.25,3.25,0,0,1-1.63-2A3.79,3.79,0,0,1,28,48.06a4.62,4.62,0,0,1,.5-1.67,3.57,3.57,0,0,1,.84-1,2.64,2.64,0,0,1,1-.48,2.86,2.86,0,0,1,.92-.06,3.15,3.15,0,0,1,1.12.33,3.09,3.09,0,0,1,.7.55,3.39,3.39,0,0,1,.46.66c.12.23.24.46.36.67a2.76,2.76,0,0,0,.45.57A1.4,1.4,0,0,0,35,48l.54.07L35.28,50l-.65-.08A2.91,2.91,0,0,1,33,49a3.86,3.86,0,0,1-.44-.62c-.12-.21-.24-.4-.36-.58a2.06,2.06,0,0,0-.42-.46,1.2,1.2,0,0,0-.63-.22,1.31,1.31,0,0,0-1,.19,1.26,1.26,0,0,0-.43.86,1.32,1.32,0,0,0,.4,1.2,1.74,1.74,0,0,0,.55.34,3.47,3.47,0,0,0,.72.19L31.07,52A4.24,4.24,0,0,1,29.69,51.56Zm6.73-3.49,2.21.29-.3,2.26-2.21-.29Z" style="fill:#919191"/><path d="M45.23,34.46a3.44,3.44,0,0,1,.7-1.14A3.16,3.16,0,0,1,47,32.56a3.78,3.78,0,0,1,1.44-.29,4.39,4.39,0,0,1,1.72.26,3.24,3.24,0,0,1,1.12.69,2.4,2.4,0,0,1,.61.9,2.74,2.74,0,0,1,.2.9,3.13,3.13,0,0,1-.17,1.14,2.74,2.74,0,0,1-.44.78,3.08,3.08,0,0,1-.59.55L50.3,38a2.47,2.47,0,0,0-.5.52,1.45,1.45,0,0,0-.28.73v.55l-2,0v-.65a2.82,2.82,0,0,1,.67-1.77,3.8,3.8,0,0,1,.54-.52c.19-.15.37-.29.53-.44a1.69,1.69,0,0,0,.39-.49,1.12,1.12,0,0,0,.13-.65,1.31,1.31,0,0,0-.34-1,1.27,1.27,0,0,0-.91-.31,1.57,1.57,0,0,0-.67.16,1.54,1.54,0,0,0-.46.42,1.79,1.79,0,0,0-.26.6,3,3,0,0,0-.07.73L45,35.9A4.16,4.16,0,0,1,45.23,34.46Zm4.42,6.16,0,2.23-2.27,0,0-2.23Z" style="fill:#919191"/><path d="M166.59,99.25h-8.91a.39.39,0,0,0-.39.39.38.38,0,0,0,.39.39h8.91a.39.39,0,0,0,0-.78Z" style="fill:#919191"/><path d="M154.83,99.25h-1.74a.38.38,0,0,0-.39.39.39.39,0,0,0,.39.39h1.74a.39.39,0,0,0,0-.78Z" style="fill:#919191"/><path d="M162.4,102.36a.39.39,0,0,1-.39.39h-1.12a.4.4,0,0,1-.39-.39.39.39,0,0,1,.39-.39H162A.38.38,0,0,1,162.4,102.36Zm-3.07,0a.39.39,0,0,1-.39.39H157a.4.4,0,0,1-.39-.39A.39.39,0,0,1,157,102h1.95a.38.38,0,0,1,.39.39Zm-3.9,0a.39.39,0,0,1-.39.39h-1.95a.39.39,0,0,1-.39-.39.38.38,0,0,1,.39-.39H155a.38.38,0,0,1,.39.38Z" style="fill:#919191"/><path d="M168.25,107.3a.39.39,0,0,0-.39.39h0v.9a.4.4,0,0,0,.4.39.38.38,0,0,0,.38-.39v-.9A.38.38,0,0,0,168.25,107.3Z" style="fill:#919191"/><path d="M167.23,106.39h-.9a.39.39,0,1,0,0,.78h.9a.39.39,0,0,0,0-.78Z" style="fill:#919191"/><path d="M168.25,104.51a.4.4,0,0,0-.39.39h0v.9a.4.4,0,0,0,.39.39.39.39,0,0,0,.39-.39h0v-.9A.39.39,0,0,0,168.25,104.51Z" style="fill:#919191"/><path d="M170.18,106.33h-.9a.39.39,0,0,0,0,.78h.91a.39.39,0,0,0,.39-.39A.38.38,0,0,0,170.18,106.33Z" style="fill:#919191"/><path d="M30.83,8.23a.38.38,0,0,0-.39.39v.9a.39.39,0,0,0,.78,0h0v-.9A.39.39,0,0,0,30.83,8.23Z" style="fill:#919191"/><path d="M29.81,7.32h-.9a.39.39,0,0,0-.39.39.38.38,0,0,0,.39.39h.9a.38.38,0,0,0,.39-.39.39.39,0,0,0-.39-.39Z" style="fill:#919191"/><path d="M30.83,5.45a.38.38,0,0,0-.39.39v.9a.39.39,0,0,0,.39.39.4.4,0,0,0,.39-.39h0v-.9A.39.39,0,0,0,30.83,5.45Z" style="fill:#919191"/><path d="M32.76,7.26h-.9a.39.39,0,0,0-.4.39.4.4,0,0,0,.39.39h.91a.39.39,0,1,0,0-.78Z" style="fill:#919191"/><path d="M88.16,4.1h8.91a.39.39,0,0,0,0-.78H88.16a.39.39,0,0,0-.39.39A.38.38,0,0,0,88.16,4.1Z" style="fill:#919191"/><path d="M99.91,4.1h1.75a.38.38,0,0,0,.38-.39.39.39,0,0,0-.38-.39H99.91a.4.4,0,0,0-.39.39A.39.39,0,0,0,99.91,4.1Z" style="fill:#919191"/><path d="M92.35,1a.38.38,0,0,1,.39-.38h1.11a.39.39,0,1,1,0,.77H92.74A.38.38,0,0,1,92.35,1Zm3.06,0A.39.39,0,0,1,95.8.61h2a.38.38,0,0,1,.39.38.38.38,0,0,1-.39.39H95.81a.38.38,0,0,1-.4-.38Zm3.9,0A.39.39,0,0,1,99.7.61h2A.38.38,0,0,1,102,1a.38.38,0,0,1-.39.39H99.71a.39.39,0,0,1-.4-.38Z" style="fill:#919191"/><path d="M155.76,15.19a.4.4,0,0,0,.39-.39h0v-.91a.39.39,0,0,0-.78,0v.91A.39.39,0,0,0,155.76,15.19Z" style="fill:#919191"/><path d="M156.78,16.09h.9a.38.38,0,0,0,.39-.39.39.39,0,0,0-.39-.39h-.9a.39.39,0,0,0-.39.39A.38.38,0,0,0,156.78,16.09Z" style="fill:#919191"/><path d="M155.76,18a.4.4,0,0,0,.39-.39h0v-.9a.39.39,0,0,0-.39-.39.38.38,0,0,0-.39.39h0v.9A.39.39,0,0,0,155.76,18Z" style="fill:#919191"/><path d="M153.83,16.16h.91a.4.4,0,0,0,.39-.39.39.39,0,0,0-.39-.39h-.91a.39.39,0,0,0-.39.39A.4.4,0,0,0,153.83,16.16Z" style="fill:#919191"/><path d="M11.65,29.89h8.92a.39.39,0,0,0,0-.78H11.65a.38.38,0,0,0-.39.39.39.39,0,0,0,.39.39Z" style="fill:#919191"/><path d="M7.07,29.89H8.81a.39.39,0,1,0,0-.78H7.07a.39.39,0,0,0,0,.78Z" style="fill:#919191"/><path d="M152.2,48.11s.18,1.33-1.37,1.3c0,0,1.33,0,1.3,1.25a1.51,1.51,0,0,1,1.34-1.2S152.43,49.7,152.2,48.11Z" style="fill:#919191"/><path d="M78.66,0s.19,1.32-1.36,1.29c0,0,1.33,0,1.3,1.26a1.5,1.5,0,0,1,1.34-1.2S78.9,1.59,78.66,0Z" style="fill:#919191"/><path d="M4.77,47.6S5,48.92,3.41,48.89c0,0,1.33,0,1.29,1.26A1.52,1.52,0,0,1,6,49S5,49.19,4.77,47.6Z" style="fill:#919191"/><path d="M17.13,99.83a1.31,1.31,0,1,1,1.31,1.31A1.31,1.31,0,0,1,17.13,99.83Zm.65,0a.66.66,0,0,0,1.32,0,.66.66,0,0,0-1.32,0Z" style="fill:#919191"/><path d="M129,74.34a1.31,1.31,0,0,1,2.62,0,1.31,1.31,0,0,1-2.62,0Zm.65,0a.66.66,0,1,0,.66-.66A.66.66,0,0,0,129.62,74.34Z" style="fill:#919191"/><path d="M89.28,113.41a1.31,1.31,0,1,1,1.31,1.31A1.31,1.31,0,0,1,89.28,113.41Zm.65,0a.66.66,0,1,0,.66-.65h0A.65.65,0,0,0,89.93,113.41Z" style="fill:#919191"/><path d="M68.54,25.28a1.31,1.31,0,1,1,1.3,1.31A1.31,1.31,0,0,1,68.54,25.28Zm.64,0a.66.66,0,1,0,.66-.66A.67.67,0,0,0,69.18,25.28Z" style="fill:#919191"/><path d="M114.46,18.85H113a.32.32,0,0,0-.32.33.32.32,0,0,0,.32.32h1.45a.32.32,0,0,0,.32-.32.32.32,0,0,0-.32-.33Z" style="fill:#919191"/><path d="M124.22,18.85h-7.4a.32.32,0,0,0-.32.33.32.32,0,0,0,.32.32h7.4a.32.32,0,0,0,.33-.32A.33.33,0,0,0,124.22,18.85Z" style="fill:#919191"/><path d="M120.74,21.44a.32.32,0,0,1-.32.32h-.93a.33.33,0,0,1,0-.65h.93a.32.32,0,0,1,.32.32Zm-2.54,0a.33.33,0,0,1-.32.32h-1.62a.33.33,0,1,1,0-.65h1.62a.32.32,0,0,1,.32.32Zm-3.24,0a.32.32,0,0,1-.32.32H113a.33.33,0,0,1,0-.65h1.62a.32.32,0,0,1,.32.33Z" style="fill:#919191"/><path d="M24.64,87.59a.32.32,0,0,0-.32.32h0v.75a.32.32,0,0,0,.32.33.33.33,0,0,0,.33-.33v-.75A.32.32,0,0,0,24.64,87.59Z" style="fill:#919191"/><path d="M23.79,86.83H23a.33.33,0,0,0,0,.65h.78a.33.33,0,1,0,0-.65Z" style="fill:#919191"/><path d="M24.64,85.28a.32.32,0,0,0-.32.32h0v.75a.31.31,0,0,0,.32.32.32.32,0,0,0,.33-.32V85.6A.32.32,0,0,0,24.64,85.28Z" style="fill:#919191"/><path d="M26.24,86.78h-.75a.33.33,0,0,0,0,.65h.75a.33.33,0,1,0,0-.65Z" style="fill:#919191"/><path d="M124.59,62.61a.33.33,0,0,0-.32.33h0v.75a.33.33,0,0,0,.65,0v-.75a.33.33,0,0,0-.33-.33Z" style="fill:#919191"/><path d="M123.75,61.86H123a.33.33,0,0,0-.35.31.32.32,0,0,0,.31.34h.79a.32.32,0,0,0,.34-.31.33.33,0,0,0-.31-.34Z" style="fill:#919191"/><path d="M124.59,60.31a.32.32,0,0,0-.32.32h0v.75a.33.33,0,1,0,.65,0v-.75a.32.32,0,0,0-.33-.32Z" style="fill:#919191"/><path d="M126.19,61.81h-.75a.32.32,0,0,0-.32.32.32.32,0,0,0,.32.33h.75a.32.32,0,0,0,.33-.32.33.33,0,0,0-.32-.33Z" style="fill:#919191"/><path d="M84.77,31.39a.32.32,0,0,0-.32.32h0v.75a.33.33,0,1,0,.65,0v-.75a.32.32,0,0,0-.32-.32Z" style="fill:#919191"/><path d="M83.93,30.63h-.75a.33.33,0,0,0-.33.33.32.32,0,0,0,.33.32h.75a.33.33,0,0,0,0-.65Z" style="fill:#919191"/><path d="M84.77,29.08a.32.32,0,0,0-.32.32h0v.75a.33.33,0,1,0,.65,0V29.4a.32.32,0,0,0-.32-.32Z" style="fill:#919191"/><path d="M86.37,30.58h-.75a.33.33,0,0,0,0,.65h.75a.32.32,0,0,0,.33-.32.33.33,0,0,0-.32-.33Z" style="fill:#919191"/><path d="M106.65,102.3a.33.33,0,0,0-.33.33h0v.75a.32.32,0,0,0,.33.32.32.32,0,0,0,.32-.32v-.75a.32.32,0,0,0-.32-.33Z" style="fill:#919191"/><path d="M105.8,101.55h-.75a.32.32,0,0,0-.31.34.32.32,0,0,0,.31.3h.75a.32.32,0,0,0,.31-.34A.33.33,0,0,0,105.8,101.55Z" style="fill:#919191"/><path d="M106.65,100a.33.33,0,0,0-.33.33h0v.75a.32.32,0,0,0,.33.32.32.32,0,0,0,.32-.32v-.75a.32.32,0,0,0-.32-.33Z" style="fill:#919191"/><path d="M108.25,101.5h-.76a.32.32,0,0,0,0,.64h.76a.32.32,0,0,0,0-.64Z" style="fill:#919191"/><path d="M124.32,91.84h7.4a.33.33,0,1,0,0-.65h-7.43a.33.33,0,0,0,0,.65Z" style="fill:#919191"/><path d="M120.52,91.84H122a.33.33,0,0,0,.31-.35.32.32,0,0,0-.31-.3h-1.44a.32.32,0,0,0-.34.3.33.33,0,0,0,.3.35Z" style="fill:#919191"/><path d="M26.67,123.63h7.4a.33.33,0,0,0,.33-.33.32.32,0,0,0-.33-.32h-7.4a.32.32,0,0,0-.32.32A.33.33,0,0,0,26.67,123.63Z" style="fill:#919191"/><path d="M22.87,123.63h1.45a.33.33,0,0,0,0-.65H22.87a.32.32,0,0,0-.34.31.33.33,0,0,0,.31.34Z" style="fill:#919191"/><path d="M109.81,109.9a.39.39,0,0,0-.39.39h0v.91a.39.39,0,0,0,.39.39.4.4,0,0,0,.39-.39h0v-.91A.4.4,0,0,0,109.81,109.9Z" style="fill:#919191"/><path d="M108.78,109h-.9a.4.4,0,0,0-.39.39.39.39,0,0,0,.39.39h.91a.39.39,0,0,0,.39-.39.4.4,0,0,0-.39-.39Z" style="fill:#919191"/><path d="M109.81,107.12a.38.38,0,0,0-.39.39h0v.9a.39.39,0,0,0,.39.39.4.4,0,0,0,.39-.39v-.9A.39.39,0,0,0,109.81,107.12Z" style="fill:#919191"/><path d="M111.73,108.93h-.9a.39.39,0,1,0,0,.78h.9a.39.39,0,1,0,0-.78Z" style="fill:#919191"/></svg>